<svg width="24" height="25" viewBox="0 0 24 25" fill="none" xmlns="http://www.w3.org/2000/svg">
<path d="M19 3.1333H5C3.895 3.1333 3 4.0283 3 5.1333V19.1333C3 20.2383 3.895 21.1333 5 21.1333H12.621V14.1723H10.278V11.4473H12.621V9.4423C12.621 7.1183 14.042 5.8513 16.116 5.8513C16.815 5.8493 17.513 5.8853 18.208 5.9563V8.3863H16.78C15.65 8.3863 15.43 8.9203 15.43 9.7083V11.4433H18.13L17.779 14.1683H15.414V21.1333H19C20.105 21.1333 21 20.2383 21 19.1333V5.1333C21 4.0283 20.105 3.1333 19 3.1333Z" fill="#232946"/>
</svg>
