<svg width="24" height="25" viewBox="0 0 24 25" fill="none" xmlns="http://www.w3.org/2000/svg">
<path d="M17 3.1333H7C4.791 3.1333 3 4.9243 3 7.1333V17.1333C3 19.3423 4.791 21.1333 7 21.1333H17C19.209 21.1333 21 19.3423 21 17.1333V7.1333C21 4.9243 19.209 3.1333 17 3.1333ZM17.05 9.6473C17.05 9.7333 17.05 9.8183 17.05 9.9903C17.05 13.2473 14.564 17.0193 10.021 17.0193C8.65 17.0193 7.364 16.5903 6.25 15.9053C6.421 15.9053 6.679 15.9053 6.85 15.9053C7.964 15.9053 9.079 15.4763 9.936 14.8763C8.822 14.8763 7.965 14.1053 7.622 13.1623C7.793 13.1623 7.965 13.2483 8.051 13.2483C8.308 13.2483 8.48 13.2483 8.737 13.1623C7.623 12.9053 6.766 11.9623 6.766 10.7623C7.109 10.9333 7.452 11.0193 7.88 11.1053C7.194 10.5053 6.766 9.8193 6.766 8.9623C6.766 8.5333 6.852 8.1053 7.109 7.7623C8.309 9.2193 10.109 10.2483 12.166 10.3333C12.166 10.1623 12.08 9.9903 12.08 9.7333C12.08 8.3623 13.194 7.2473 14.566 7.2473C15.252 7.2473 15.937 7.5043 16.366 8.0183C16.966 7.9323 17.48 7.6753 17.909 7.4183C17.738 8.0183 17.309 8.4473 16.795 8.7893C17.309 8.7033 17.738 8.6183 18.252 8.3603C17.907 8.8763 17.479 9.3043 17.05 9.6473Z" fill="#232946"/>
</svg>
